name rise30.2954peak35.7071fall66.7804.mot
datacolumns 19
datarows 32
range 7.70497700000000 7.75664000000000
endheader
time	ground_force1_vx	ground_force1_vy	ground_force1_vz	ground_force1_px	ground_force1_py	ground_force1_pz	ground_force2_vx	ground_force2_vy	ground_force2_vz	ground_force2_px	ground_force2_py	ground_force2_pz	ground_torque1_x	ground_torque1_y	ground_torque1_z	ground_torque2_x	ground_torque2_y	ground_torque2_z	
7.70497700000000	-40.82449900000000	836.60286199999996	41.64367000000000	0.14172300000000	0.00000000000000	0.07874500000000	-2.50911300000000	7.06345600000000	1.22609400000000	0.00000000000000	0.00000000000000	0.00000000000000	0.00000000000000	18.00422000000000	0.00000000000000	0.00000000000000	0.26426200000000	0.00000000000000	
7.70664100000000	-41.53902400000000	835.15540799999997	41.52481200000000	0.14072900000000	0.00000000000000	0.07868000000000	-3.58763800000000	10.96675600000000	1.85098500000000	0.00000000000000	0.00000000000000	0.00000000000000	0.00000000000000	17.94209900000000	0.00000000000000	0.00000000000000	0.42036700000000	0.00000000000000	
7.70830600000000	-42.27286400000000	833.57433800000001	41.39350400000000	0.13974600000000	0.00000000000000	0.07861200000000	-4.76205700000000	15.46143500000000	2.55789000000000	0.00000000000000	0.00000000000000	0.00000000000000	0.00000000000000	17.88096500000000	0.00000000000000	0.00000000000000	0.60180500000000	0.00000000000000	
7.70997400000000	-43.02623700000000	831.85836300000005	41.24956600000000	0.13877500000000	0.00000000000000	0.07854200000000	-5.99232200000000	20.46657300000000	3.33019400000000	0.00000000000000	0.00000000000000	0.00000000000000	0.00000000000000	17.82092500000000	0.00000000000000	0.00000000000000	0.80561900000000	0.00000000000000	
7.71164200000000	-43.79928500000000	830.00622799999996	41.09283300000000	0.13781700000000	0.00000000000000	0.07846800000000	-7.23278400000000	25.87775800000000	4.14752700000000	0.31495700000000	0.00000000000000	-0.09027500000000	0.00000000000000	17.76207300000000	0.00000000000000	0.00000000000000	1.68117400000000	0.00000000000000	
7.71333900000000	-44.59207500000000	828.01670700000000	40.92316100000000	0.13687000000000	0.00000000000000	0.07839200000000	-8.43551700000000	31.57568400000000	4.98730000000000	0.32086900000000	0.00000000000000	-0.09024200000000	0.00000000000000	17.70449400000000	0.00000000000000	0.00000000000000	2.10271900000000	0.00000000000000	
7.71497200000000	-45.40459400000000	825.88860099999999	40.74042200000000	0.13593500000000	0.00000000000000	0.07831200000000	-9.55391100000000	37.43622900000000	5.82646400000000	0.32646900000000	0.00000000000000	-0.09020000000000	0.00000000000000	17.64825800000000	0.00000000000000	0.00000000000000	2.54856600000000	0.00000000000000	
7.71663800000000	-46.23674400000000	823.62072899999998	40.54450800000000	0.13501300000000	0.00000000000000	0.07823000000000	-10.54606000000000	43.34059700000000	6.64324100000000	0.33177500000000	0.00000000000000	-0.09015200000000	0.00000000000000	17.59342200000000	0.00000000000000	0.00000000000000	3.00957000000000	0.00000000000000	
7.71831000000000	-47.08834100000000	821.21193000000005	40.33533000000000	0.13410200000000	0.00000000000000	0.07814500000000	-11.37751300000000	49.18419000000000	7.41861200000000	0.33680400000000	0.00000000000000	-0.09010000000000	0.00000000000000	17.54003200000000	0.00000000000000	0.00000000000000	3.47682800000000	0.00000000000000	
7.71997900000000	-47.95910900000000	818.66105600000003	40.11281800000000	0.13320300000000	0.00000000000000	0.07805700000000	-12.02310600000000	54.88326500000000	8.13740800000000	0.34156800000000	0.00000000000000	-0.09004800000000	0.00000000000000	17.48811900000000	0.00000000000000	0.00000000000000	3.94228800000000	0.00000000000000	
7.72164100000000	-48.84868000000000	815.96697300000005	39.87692300000000	0.13231600000000	0.00000000000000	0.07796600000000	-12.46780000000000	60.37895400000000	8.78892400000000	0.34608100000000	0.00000000000000	-0.08999700000000	0.00000000000000	17.43769900000000	0.00000000000000	0.00000000000000	4.39920500000000	0.00000000000000	
7.72330800000000	-49.75658800000000	813.12855300000001	39.62761100000000	0.13143900000000	0.00000000000000	0.07787200000000	-12.70656700000000	65.63860699999999	9.36708400000000	0.35035200000000	0.00000000000000	-0.08994800000000	0.00000000000000	17.38877500000000	0.00000000000000	0.00000000000000	4.84241700000000	0.00000000000000	
7.72497200000000	-50.68226700000000	810.14467600000000	39.36487100000000	0.13057300000000	0.00000000000000	0.07777600000000	-12.74347400000000	70.65477000000000	9.87019000000000	0.35439200000000	0.00000000000000	-0.08990400000000	0.00000000000000	17.34133500000000	0.00000000000000	0.00000000000000	5.26844900000000	0.00000000000000	
7.72664300000000	-51.62505000000000	807.01422800000000	39.08871100000000	0.12971700000000	0.00000000000000	0.07767700000000	-12.59018600000000	75.44225400000001	10.30035900000000	0.35820800000000	0.00000000000000	-0.08986600000000	0.00000000000000	17.29535300000000	0.00000000000000	0.00000000000000	5.67545900000000	0.00000000000000	
7.72830900000000	-52.58416700000000	803.73609799999997	38.79915500000000	0.12887000000000	0.00000000000000	0.07757600000000	-12.26409400000000	80.03387200000000	10.66274200000000	0.36181000000000	0.00000000000000	-0.08983400000000	0.00000000000000	17.25078700000000	0.00000000000000	0.00000000000000	6.06305000000000	0.00000000000000	
7.72997400000000	-53.55873900000000	800.30917699999998	38.49624900000000	0.12803300000000	0.00000000000000	0.07747200000000	-11.78629600000000	84.47543200000000	10.96462600000000	0.36520300000000	0.00000000000000	-0.08980800000000	0.00000000000000	17.20758200000000	0.00000000000000	0.00000000000000	6.43199400000000	0.00000000000000	
7.73163800000000	-54.54778100000000	796.73236099999997	38.18005700000000	0.12720300000000	0.00000000000000	0.07736600000000	-11.17963200000000	88.82053000000001	11.21452500000000	0.36839600000000	0.00000000000000	-0.08979100000000	0.00000000000000	17.16566600000000	0.00000000000000	0.00000000000000	6.78390700000000	0.00000000000000	
7.73331100000000	-55.55019800000000	793.00454900000000	37.85066000000000	0.12638100000000	0.00000000000000	0.07725700000000	-10.46690000000000	93.12558900000001	11.42131600000000	0.37139400000000	0.00000000000000	-0.08978200000000	0.00000000000000	17.12495400000000	0.00000000000000	0.00000000000000	7.12090500000000	0.00000000000000	
7.73497200000000	-56.56478600000000	789.12464199999999	37.50815900000000	0.12556500000000	0.00000000000000	0.07714700000000	-9.66938700000000	97.44551000000000	11.59350600000000	0.37420400000000	0.00000000000000	-0.08978100000000	0.00000000000000	17.08534600000000	0.00000000000000	0.00000000000000	7.44528000000000	0.00000000000000	
7.73664500000000	-57.59022800000000	785.09155099999998	37.15267200000000	0.12475500000000	0.00000000000000	0.07703400000000	-8.80576400000000	101.83016499999999	11.73864200000000	0.37683200000000	0.00000000000000	-0.08978800000000	0.00000000000000	17.04672700000000	0.00000000000000	0.00000000000000	7.75921300000000	0.00000000000000	
7.73830800000000	-58.62509800000000	780.90418999999997	36.78433400000000	0.12395000000000	0.00000000000000	0.07692000000000	-7.89136500000000	106.32185900000000	11.86290300000000	0.37928400000000	0.00000000000000	-0.08980500000000	0.00000000000000	17.00896900000000	0.00000000000000	0.00000000000000	8.06455400000000	0.00000000000000	
7.73997500000000	-59.66785900000000	776.56148700000006	36.40329900000000	0.12315000000000	0.00000000000000	0.07680300000000	-6.93784800000000	110.95376800000000	11.97085800000000	0.38156500000000	0.00000000000000	-0.08983000000000	0.00000000000000	16.97192900000000	0.00000000000000	0.00000000000000	8.36266100000000	0.00000000000000	
7.74164100000000	-60.71686500000000	772.06238399999995	36.00973800000000	0.12235200000000	0.00000000000000	0.07668500000000	-5.95318400000000	115.74932699999999	12.06539500000000	0.38368000000000	0.00000000000000	-0.08986400000000	0.00000000000000	16.93545300000000	0.00000000000000	0.00000000000000	8.65430800000000	0.00000000000000	
7.74330400000000	-61.77036100000000	767.40584000000001	35.60383600000000	0.12155700000000	0.00000000000000	0.07656600000000	-4.94192200000000	120.72240300000000	12.14777900000000	0.38563600000000	0.00000000000000	-0.08990700000000	0.00000000000000	16.89937000000000	0.00000000000000	0.00000000000000	8.93966100000000	0.00000000000000	
7.74497700000000	-62.82648500000000	762.59083899999996	35.18579800000000	0.12076300000000	0.00000000000000	0.07644500000000	-3.90565800000000	125.87813000000000	12.21782600000000	0.38743800000000	0.00000000000000	-0.08995900000000	0.00000000000000	16.86349900000000	0.00000000000000	0.00000000000000	9.21830300000000	0.00000000000000	
7.74664400000000	-63.88327300000000	757.61639500000001	34.75584200000000	0.11997000000000	0.00000000000000	0.07632300000000	-2.84363300000000	131.21420000000001	12.27414600000000	0.38909000000000	0.00000000000000	-0.09001900000000	0.00000000000000	16.82764700000000	0.00000000000000	0.00000000000000	9.48930800000000	0.00000000000000	
7.74830700000000	-64.93865700000001	752.48155799999995	34.31420300000000	0.11917600000000	0.00000000000000	0.07620000000000	-1.75339700000000	136.72244200000000	12.31443800000000	0.39059800000000	0.00000000000000	-0.09008800000000	0.00000000000000	16.79160900000000	0.00000000000000	0.00000000000000	9.75133500000000	0.00000000000000	
7.74997700000000	-65.99047500000000	747.18542200000002	33.86113000000000	0.11838200000000	0.00000000000000	0.07607600000000	-0.63147600000000	142.39050100000000	12.33578800000000	0.39196700000000	0.00000000000000	-0.09016400000000	0.00000000000000	16.75516900000000	0.00000000000000	0.00000000000000	10.00274900000000	0.00000000000000	
7.75164800000000	-67.03646900000000	741.72713599999997	33.39689000000000	0.11758500000000	0.00000000000000	0.07595100000000	0.52602000000000	148.20350099999999	12.33497100000000	0.39320300000000	0.00000000000000	-0.09024800000000	0.00000000000000	16.71810100000000	0.00000000000000	0.00000000000000	10.24174000000000	0.00000000000000	
7.75331000000000	-68.07429200000000	736.10591499999998	32.92176000000000	0.11678500000000	0.00000000000000	0.07582600000000	1.72285900000000	154.14554100000001	12.30870700000000	0.39430900000000	0.00000000000000	-0.09033900000000	0.00000000000000	16.68016800000000	0.00000000000000	0.00000000000000	10.46643800000000	0.00000000000000	
7.75497900000000	-69.10151399999999	730.32104600000002	32.43603500000000	0.11598200000000	0.00000000000000	0.07570000000000	2.96226600000000	160.20097200000001	12.25388700000000	0.39529100000000	0.00000000000000	-0.09043800000000	0.00000000000000	16.64112500000000	0.00000000000000	0.00000000000000	10.67501600000000	0.00000000000000	
7.75664000000000	-70.11562700000000	724.37190599999997	31.94002300000000	0.11517400000000	0.00000000000000	0.07557400000000	4.24662200000000	166.35538800000000	12.16773800000000	0.39615500000000	0.00000000000000	-0.09054300000000	0.00000000000000	16.60072100000000	0.00000000000000	0.00000000000000	10.86577100000000	0.00000000000000	
